<?xml version="1.0" standalone="no"?>
<!DOCTYPE svg PUBLIC "-//W3C//DTD SVG 20010904//EN"
 "http://www.w3.org/TR/2001/REC-SVG-20010904/DTD/svg10.dtd">
<svg version="1.0" xmlns="http://www.w3.org/2000/svg"
 width="393.000000pt" height="393.000000pt" viewBox="0 0 393.000000 393.000000"
 preserveAspectRatio="xMidYMid meet">
<metadata>
Created by potrace 1.11, written by Peter Selinger 2001-2013
</metadata>
<g transform="translate(0.000000,393.000000) scale(0.100000,-0.100000)"
fill="#000000" stroke="none">
<path d="M0 1965 l0 -1965 1965 0 1965 0 0 1965 0 1965 -1965 0 -1965 0 0
-1965z m1810 1620 c489 -66 887 -356 1104 -804 25 -52 46 -101 46 -108 0 -26
-18 -12 -55 43 -50 76 -193 223 -274 283 -288 212 -663 283 -1013 191 -140
-36 -359 -145 -493 -244 -318 -234 -506 -524 -606 -934 -6 -25 -15 -42 -22
-39 -16 5 -55 105 -84 217 -16 63 -26 136 -30 216 -22 474 258 911 698 1088
226 91 489 124 729 91z m883 -270 c450 -78 806 -427 903 -885 23 -113 23 -324
-1 -435 -25 -121 -72 -259 -121 -361 -131 -275 -374 -523 -647 -661 -96 -48
-283 -109 -397 -129 -160 -28 -490 -22 -490 10 0 9 28 15 95 20 301 21 601
179 804 424 117 142 191 285 237 462 30 113 45 346 33 505 -29 362 -185 700
-441 956 -54 53 -98 100 -98 103 0 9 31 7 123 -9z m-600 -150 c469 -71 843
-424 943 -889 50 -235 15 -507 -96 -727 -112 -226 -306 -415 -535 -523 -581
-276 -1289 6 -1528 609 -95 240 -103 547 -21 777 188 524 698 834 1237 753z
m-1203 -540 c0 -3 -12 -29 -26 -58 -36 -70 -79 -198 -100 -299 -21 -100 -24
-322 -5 -418 34 -176 124 -382 220 -511 189 -250 554 -468 905 -540 238 -49
553 -30 765 45 79 28 80 18 11 -69 -147 -185 -353 -316 -599 -383 -86 -23
-114 -26 -276 -26 -165 0 -188 3 -280 28 -214 59 -375 157 -545 333 -155 159
-243 294 -321 489 -73 186 -108 433 -89 628 29 291 116 513 305 772 10 14 35
20 35 9z"/>
<path d="M1385 3554 c-521 -93 -864 -415 -966 -909 -16 -77 -16 -291 0 -375 7
-36 26 -108 43 -160 l30 -94 35 119 c57 201 165 406 300 567 217 261 570 475
880 534 117 22 321 22 435 0 257 -49 507 -187 678 -373 l63 -68 -33 60 c-199
363 -575 628 -989 699 -117 20 -364 20 -476 0z"/>
<path d="M2700 3224 c221 -232 354 -490 417 -809 25 -126 25 -463 0 -588 -33
-165 -89 -301 -183 -442 -175 -264 -442 -446 -754 -516 l-85 -19 150 5 c213 6
382 48 565 139 449 223 755 682 777 1167 7 155 -7 259 -53 399 -59 177 -141
305 -281 441 -161 156 -362 257 -583 294 l-45 8 75 -79z"/>
<path d="M1700 3130 c-319 -68 -595 -274 -749 -561 -200 -371 -164 -841 88
-1176 327 -434 906 -572 1386 -330 304 153 526 446 590 779 18 97 21 300 5
391 -68 382 -330 702 -692 846 -177 70 -440 92 -628 51z m-185 -693 c135 -65
230 -189 255 -337 7 -35 9 -84 5 -107 l-6 -43 -340 0 c-186 0 -339 -2 -339 -5
0 -33 73 -111 130 -141 77 -41 218 -18 274 45 18 20 29 21 183 21 l164 0 32
-33 c59 -62 185 -58 212 6 24 57 1 76 -130 103 -125 25 -115 19 -115 68 0 105
-63 231 -157 315 l-54 48 39 27 c72 50 138 68 262 73 128 6 214 -9 284 -51
l39 -23 41 23 c75 42 158 57 286 52 186 -8 283 -60 341 -182 l29 -61 -147 -3
c-132 -2 -148 -1 -167 16 -34 31 -62 42 -109 42 -47 0 -97 -29 -97 -56 0 -26
-16 -15 -28 20 -14 37 -77 107 -114 127 -22 11 -22 10 3 -17 27 -30 51 -72 63
-111 l7 -23 -149 0 c-124 0 -152 3 -163 16 -59 71 -209 52 -209 -26 0 -43 29
-57 173 -84 70 -14 132 -28 139 -32 8 -5 9 -2 4 12 -4 10 -10 31 -13 47 l-5
27 141 0 c108 0 147 -4 164 -15 13 -8 84 -26 159 -40 230 -42 322 -86 360
-173 16 -35 19 -57 14 -99 -17 -143 -121 -239 -295 -274 -72 -14 -269 -7 -319
11 l-34 12 35 29 c40 33 87 120 87 161 0 28 13 37 25 18 10 -16 86 -32 125
-25 49 8 80 38 80 75 0 39 -34 56 -163 81 -56 11 -113 28 -127 37 -47 34 -53
35 -30 4 15 -21 25 -50 28 -86 12 -146 -95 -270 -269 -311 -123 -29 -324 -14
-410 31 l-31 15 45 48 c38 41 87 117 87 136 0 3 -18 5 -39 5 -36 0 -42 -4 -71
-49 -81 -127 -219 -201 -376 -201 -225 0 -408 155 -446 379 -30 175 56 361
211 455 83 51 148 67 258 62 81 -3 101 -7 168 -39z"/>
<path d="M1246 2264 c-33 -10 -64 -31 -100 -67 l-51 -52 219 -3 c120 -1 221 0
224 3 3 3 -8 22 -25 43 -60 74 -173 106 -267 76z"/>
<path d="M752 2418 c-216 -393 -241 -837 -69 -1244 71 -170 193 -342 341 -482
407 -386 1010 -413 1451 -67 69 54 191 182 182 191 -2 2 -19 -1 -38 -6 -377
-112 -794 -73 -1143 105 -132 67 -304 185 -387 266 -332 322 -453 808 -309
1239 15 47 27 86 26 88 -2 1 -26 -40 -54 -90z"/>
</g>
</svg>
